<?xml version="1.0" encoding="utf-8"?>
<!-- Generator: Adobe Illustrator 25.0.0, SVG Export Plug-In . SVG Version: 6.00 Build 0)  -->
<svg version="1.0" xmlns="http://www.w3.org/2000/svg" xmlns:xlink="http://www.w3.org/1999/xlink" x="0px" y="0px"
	 viewBox="0 0 133.2283478 54.5669289" style="enable-background:new 0 0 133.2283478 54.5669289;" xml:space="preserve">
<style type="text/css">
	.st0{fill:#D70F3C;}
	.st1{fill:#002D58;}
	.st2{display:none;}
	.st3{display:inline;opacity:0;fill:#CCD5DE;}
</style>
<g id="Klammer">
	<g>
		<g>
			<polygon class="st0" points="7.2763009,17.3150959 4.2763009,17.3150959 4.2763009,4.2535729 17.3378239,4.2535729 
				17.3378239,7.2535729 7.2763009,7.2535729 			"/>
		</g>
	</g>
</g>
<g id="EN">
	<g>
		<path class="st1" d="M11.5596895,38.7727547v-7.6265984h1.1188164v7.6265984c0,2.9903793,1.2728996,4.3741798,3.6076918,4.3741798
			c2.3338127,0,3.6076927-1.3838005,3.6076927-4.3741798v-7.6265984h1.1188164v7.6265984
			c0,3.7941628-1.8332882,5.3830757-4.7265091,5.3830757C13.3919973,44.1558304,11.5596895,42.5669174,11.5596895,38.7727547z"/>
		<path class="st1" d="M34.3462486,31.1461563v12.8977928h-1.0805397l-6.6363487-10.7298393v10.7298393h-1.1188164V31.1461563
			h1.0609131l6.6559753,10.8230782V31.1461563H34.3462486z"/>
		<path class="st1" d="M40.155262,44.0439491h-1.1188164V31.1461563h1.1188164V44.0439491z"/>
		<path class="st1" d="M45.2880783,31.1461563l4.1091957,11.1410561l4.1474724-11.1410561h1.2149963l-4.8226891,12.8977928
			H48.895771L44.073082,31.1461563H45.2880783z"/>
		<path class="st1" d="M65.9322052,31.1461563v1.0088959h-6.7138824V36.86586h6.1348419v1.0098801h-6.1348419v5.1583328h6.7138824
			v1.0098763h-7.8326988V31.1461563H65.9322052z"/>
		<path class="st1" d="M77.5865402,44.0439491l-2.9521027-5.5145874c-0.2895203,0.0372963-0.5780563,0.0372963-0.887207,0.0372963
			h-3.028656v5.4772911H69.599762V31.1461563h4.1474686c3.0100098,0,4.7461395,1.2709351,4.7461395,3.719574
			c0,1.8323059-0.9843597,3.0100098-2.7401199,3.4771652l3.0865631,5.7010536H77.5865402z M73.7472305,37.5577583
			c2.3347931,0,3.627327-0.7664871,3.627327-2.692028s-1.2925339-2.7106781-3.627327-2.7106781h-3.028656v5.4027061H73.7472305z"/>
		<path class="st1" d="M89.8002853,33.7626152c-0.6948471-0.9902496-1.6203232-1.7194443-3.4536057-1.7194443
			c-1.8323135,0-3.0473099,0.7291946-3.0473099,2.3181114c0,1.8499718,1.524147,2.3181076,3.4526291,2.7293205
			c2.5085068,0.523098,4.1671066,1.2709389,4.1671066,3.7009277c0,1.6448555-1.1963501,3.3642998-4.3790894,3.3642998
			c-2.1218262,0-3.665596-0.7105446-4.6489792-2.112011l0.9068298-0.6173096
			c0.8292999,1.0098763,1.754776,1.7204247,3.7421494,1.7204247c2.3730698,0,3.2602692-1.0658188,3.2602692-2.3181076
			c0-1.5516243-0.9264603-2.2994652-3.4339828-2.7666168c-2.4888763-0.4671555-4.1857452-1.4024467-4.1857452-3.7009277
			c0-1.8136597,1.2149963-3.3279896,4.2053757-3.3279896c2.0639191,0,3.3760757,0.6919003,4.3015518,2.1129932
			L89.8002853,33.7626152z"/>
		<path class="st1" d="M95.9763489,44.0439491h-1.1188202V31.1461563h1.1188202V44.0439491z"/>
		<path class="st1" d="M109.0753326,31.1461563v1.0088959h-4.2250061v11.8888969h-1.1188126V32.1550522h-4.2240219v-1.0088959
			H109.0753326z"/>
		<path class="st1" d="M113.0520401,31.1461563l3.5694122,6.0563316l3.5684357-6.0563316h1.3121567l-4.3211823,7.2526779v5.6451149
			h-1.1188126v-5.6451149l-4.3211899-7.2526779H113.0520401z"/>
	</g>
	<g>
		<path class="st1" d="M21.0850525,11.5090361v2.6435547h-6.4423828v3.4433603h5.7763672v2.6220703h-5.7763672v3.9980469h6.4423828
			v2.6220703h-9.5527344V11.5090361H21.0850525z"/>
		<path class="st1" d="M31.6631775,15.4855986c-0.6660156-1.0449219-1.4658203-1.5556641-3.0214844-1.5556641
			c-1.3994141,0-2.1542969,0.6445312-2.1542969,1.6884766c0,1.2001963,0.9765625,1.7333994,3.0214844,2.2441416
			c3.1992188,0.7998047,4.6425781,2,4.6425781,4.7099609c0,2.5107422-1.6884766,4.4658203-5.2871094,4.4658203
			c-2.6884766,0-4.5546875-0.7333984-5.9101562-2.5107422l2.3769531-1.6435547
			c0.8222656,1.0214844,1.7558594,1.5322266,3.3330078,1.5322266c1.7773438,0,2.3769531-0.7773438,2.3769531-1.7099609
			c0-1.0664062-0.6435547-1.6669922-3.1318359-2.3105469c-3.0214844-0.8007812-4.5332031-2.2441406-4.5332031-4.7773447
			c0-2.421875,1.5996094-4.3095703,5.2441406-4.3095703c2.4433594,0,4.2871094,0.8212891,5.3759766,2.5107422L31.6631775,15.4855986
			z"/>
		<path class="st1" d="M44.8858337,15.4855986c-0.6660156-1.0449219-1.4658203-1.5556641-3.0214844-1.5556641
			c-1.3994141,0-2.1542969,0.6445312-2.1542969,1.6884766c0,1.2001963,0.9765625,1.7333994,3.0214844,2.2441416
			c3.1992188,0.7998047,4.6425781,2,4.6425781,4.7099609c0,2.5107422-1.6884766,4.4658203-5.2871094,4.4658203
			c-2.6884766,0-4.5546875-0.7333984-5.9101562-2.5107422l2.3769531-1.6435547
			c0.8222656,1.0214844,1.7558594,1.5322266,3.3330078,1.5322266c1.7773438,0,2.3769531-0.7773438,2.3769531-1.7099609
			c0-1.0664062-0.6435547-1.6669922-3.1318359-2.3105469c-3.0214844-0.8007812-4.5332031-2.2441406-4.5332031-4.7773447
			c0-2.421875,1.5996094-4.3095703,5.2441406-4.3095703c2.4433594,0,4.2871094,0.8212891,5.3759766,2.5107422L44.8858337,15.4855986
			z"/>
		<path class="st1" d="M53.2432556,24.2160683h6.4433594v2.6220703h-9.5537109V11.5090361h3.1103516V24.2160683z"/>
		<path class="st1" d="M65.1104431,26.8381386H61.999115V11.5090361h3.1113281V26.8381386z"/>
		<path class="st1" d="M80.3301697,11.5090361v15.3291025h-2.5986328l-5.9765625-9.4863281v9.4863281h-2.9550781V11.5090361
			h2.5771484l5.9990234,9.6191416v-9.6191416H80.3301697z"/>
		<path class="st1" d="M94.8643494,18.8625526v1.3994141c0,4.6875-2.1777344,6.7763672-5.6435547,6.7763672
			c-3.4433594,0-5.8652344-2.0888672-5.8652344-6.7763672v-1.9550781c0-4.9541025,2.421875-6.9980478,5.8652344-6.9980478
			c3.2216797,0,5.1542969,1.8212891,5.6210938,4.9541025h-2.9775391c-0.265625-1.399415-1.0878906-2.3330088-2.6435547-2.3330088
			c-1.7998047,0-2.7548828,1.2216797-2.7548828,4.1552744v2.1767578c0,2.9326172,0.9550781,4.1542969,2.7548828,4.1542969
			c1.7548828,0,2.4658203-1.0888672,2.6435547-2.9326172h-2.5761719v-2.6210938H94.8643494z"/>
		<path class="st1" d="M107.42099,11.5090361v2.6435547h-6.4433594v3.4433603h5.7763672v2.6220703h-5.7763672v3.9980469h6.4433594
			v2.6220703h-9.5537109V11.5090361H107.42099z"/>
		<path class="st1" d="M121.5528259,11.5090361v15.3291025h-2.5986328l-5.9765625-9.4863281v9.4863281h-2.9550781V11.5090361
			h2.5771484l5.9990234,9.6191416v-9.6191416H121.5528259z"/>
	</g>
</g>
<g id="Vermassung" class="st2">
	<path class="st3" d="M11.4340153,43.7142868v2.6435547H4.991632v3.4433594h5.7763677v2.6220703H4.991632v3.9980469h6.4423833
		v2.6220703H1.8812804V43.7142868H11.4340153z"/>
	<rect x="-0.0001587" y="7.2340713" class="st3" width="4.2601218" height="4.2601218"/>
	<rect x="5.98558" y="0.0047675" class="st3" width="4.2601218" height="4.2601218"/>
	<rect x="7.2741766" y="7.2756386" class="st3" width="4.2601218" height="4.2601218"/>
	<rect x="7.2276063" y="24.1586533" class="st3" width="4.2601218" height="4.2601218"/>
</g>
</svg>
